<svg xmlns="http://www.w3.org/2000/svg" viewBox="0 0 600 400" width="600" height="400" preserveAspectRatio="xMidYMid slice">
  <defs>
    <linearGradient id="bg2" x1="0" y1="0" x2="1" y2="1">
      <stop offset="0" stop-color="#0B1226"/>
      <stop offset="1" stop-color="#060814"/>
    </linearGradient>
    <radialGradient id="glow2" cx="0.5" cy="0.5" r="0.6">
      <stop offset="0" stop-color="#00CFFF" stop-opacity="0.18"/>
      <stop offset="1" stop-color="#00CFFF" stop-opacity="0"/>
    </radialGradient>
  </defs>
  <rect width="600" height="400" fill="url(#bg2)"/>
  <rect width="600" height="400" fill="url(#glow2)"/>
  <!-- knowledge graph -->
  <g stroke="#00CFFF" stroke-width="1" opacity="0.55" fill="none">
    <line x1="300" y1="200" x2="180" y2="120"/>
    <line x1="300" y1="200" x2="180" y2="280"/>
    <line x1="300" y1="200" x2="420" y2="120"/>
    <line x1="300" y1="200" x2="420" y2="280"/>
    <line x1="180" y1="120" x2="100" y2="60"/>
    <line x1="180" y1="280" x2="100" y2="340"/>
    <line x1="420" y1="120" x2="500" y2="60"/>
    <line x1="420" y1="280" x2="500" y2="340"/>
    <line x1="180" y1="120" x2="180" y2="280"/>
    <line x1="420" y1="120" x2="420" y2="280"/>
  </g>
  <g fill="#00CFFF">
    <circle cx="300" cy="200" r="12"/>
    <circle cx="180" cy="120" r="8"/>
    <circle cx="180" cy="280" r="8"/>
    <circle cx="420" cy="120" r="8"/>
    <circle cx="420" cy="280" r="8"/>
    <circle cx="100" cy="60" r="5"/>
    <circle cx="100" cy="340" r="5"/>
    <circle cx="500" cy="60" r="5"/>
    <circle cx="500" cy="340" r="5"/>
  </g>
  <text x="32" y="60" font-family="ui-monospace,monospace" font-size="13" fill="#00CFFF" letter-spacing="3">PREREQ</text>
  <text x="32" y="370" font-family="ui-monospace,monospace" font-size="11" fill="#8B93A6" letter-spacing="2">KNOWLEDGE GRAPHS • REALTIME</text>
</svg>
