<svg xmlns="http://www.w3.org/2000/svg" viewBox="0 0 600 400" width="600" height="400" preserveAspectRatio="xMidYMid slice">
  <defs>
    <linearGradient id="bg" x1="0" y1="0" x2="1" y2="1">
      <stop offset="0" stop-color="#0B1226"/>
      <stop offset="1" stop-color="#060814"/>
    </linearGradient>
    <radialGradient id="glow" cx="0.5" cy="0.5" r="0.6">
      <stop offset="0" stop-color="#00CFFF" stop-opacity="0.18"/>
      <stop offset="1" stop-color="#00CFFF" stop-opacity="0"/>
    </radialGradient>
  </defs>
  <rect width="600" height="400" fill="url(#bg)"/>
  <rect width="600" height="400" fill="url(#glow)"/>
  <!-- waveform bars -->
  <g fill="#00CFFF" opacity="0.85">
    <rect x="80" y="180" width="6" height="40" rx="2"/>
    <rect x="100" y="160" width="6" height="80" rx="2"/>
    <rect x="120" y="140" width="6" height="120" rx="2"/>
    <rect x="140" y="120" width="6" height="160" rx="2"/>
    <rect x="160" y="100" width="6" height="200" rx="2"/>
    <rect x="180" y="80" width="6" height="240" rx="2"/>
    <rect x="200" y="100" width="6" height="200" rx="2"/>
    <rect x="220" y="120" width="6" height="160" rx="2"/>
    <rect x="240" y="140" width="6" height="120" rx="2"/>
    <rect x="260" y="160" width="6" height="80" rx="2"/>
    <rect x="280" y="180" width="6" height="40" rx="2"/>
    <rect x="300" y="170" width="6" height="60" rx="2"/>
    <rect x="320" y="130" width="6" height="140" rx="2"/>
    <rect x="340" y="100" width="6" height="200" rx="2"/>
    <rect x="360" y="80" width="6" height="240" rx="2"/>
    <rect x="380" y="110" width="6" height="180" rx="2"/>
    <rect x="400" y="140" width="6" height="120" rx="2"/>
    <rect x="420" y="170" width="6" height="60" rx="2"/>
    <rect x="440" y="180" width="6" height="40" rx="2"/>
  </g>
  <text x="32" y="60" font-family="ui-monospace,monospace" font-size="13" fill="#00CFFF" letter-spacing="3">VOICEREACH</text>
  <text x="32" y="370" font-family="ui-monospace,monospace" font-size="11" fill="#8B93A6" letter-spacing="2">VOICE • AI • CIVIC TECH</text>
</svg>
